HIERARCHY
ROOT Hips
{
	OFFSET 0.00000 0.00000 0.00000
	CHANNELS 6 Xposition Yposition Zposition Zrotation Yrotation Xrotation 
	JOINT RightUpLegDummy
	{
		OFFSET 0 0 0
		CHANNELS 3 Zrotation Yrotation Xrotation
		JOINT RightUpLeg
		{
			OFFSET -3.52197 -3.41223 0.04002
			CHANNELS 3 Zrotation Yrotation Xrotation
			JOINT RightLeg
			{
				OFFSET 0.00006 -17.42390 1.60435
				CHANNELS 3 Zrotation Yrotation Xrotation
				JOINT RightFoot
				{
					OFFSET 0.06153 -16.50078 -1.63901
					CHANNELS 3 Zrotation Yrotation Xrotation
					JOINT RightToes
					{
						OFFSET 0.00298 -1.73825 3.34613
						CHANNELS 3 Zrotation Yrotation Xrotation
						End Site
						{
							OFFSET 0.00480 -0.05416 3.85043
						}
					}
				}
			}
		}
	}
	JOINT SpineDummy
	{
		OFFSET 0 0 0
		CHANNELS 3 Zrotation Yrotation Xrotation
		JOINT Spine
		{
			OFFSET 0.00000 4.68130 0.00000
			CHANNELS 3 Zrotation Yrotation Xrotation
			JOINT Spine1
			{
				OFFSET -0.00000 10.10138 0.05002
				CHANNELS 3 Zrotation Yrotation Xrotation
				JOINT HEadDummy
				{
					OFFSET 0 0 0
					CHANNELS 3 Zrotation Yrotation Xrotation
					JOINT Head
					{
						OFFSET -0.00000 3.43865 0.00438
						CHANNELS 3 Zrotation Yrotation Xrotation
						End Site
						{
							OFFSET -0.11417 5.02924 0.98962
						}
					}
				}
				JOINT LeftShoulder1Dummy
				{
					OFFSET 0 0 0
					CHANNELS 3 Zrotation Yrotation Xrotation
					JOINT LeftShoulder1
					{
						OFFSET 3.53937 -0.14262 -0.08662
						CHANNELS 3 Zrotation Yrotation Xrotation
						JOINT LeftArm
						{
							OFFSET 4.04833 -0.00133 0.12681
							CHANNELS 3 Zrotation Yrotation Xrotation
							JOINT LeftForeArm
							{
								OFFSET 10.33880 -0.01036 -0.55515
								CHANNELS 3 Zrotation Yrotation Xrotation
								JOINT LeftHand
								{
									OFFSET 8.69677 0.07543 0.40060
									CHANNELS 3 Zrotation Yrotation Xrotation
									End Site
									{
										OFFSET 5.28377 -0.21905 0.59205
									}
								}
							}
						}
					}
				}
				JOINT RightShoulderDummy
				{
					OFFSET 0 0 0
					CHANNELS 3 Zrotation Yrotation Xrotation
					JOINT RightShoulder
					{
						OFFSET -3.53937 -0.14262 -0.08660
						CHANNELS 3 Zrotation Yrotation Xrotation
						JOINT RightArm
						{
							OFFSET -4.04833 -0.00133 0.12683
							CHANNELS 3 Zrotation Yrotation Xrotation
							JOINT RightForeArm
							{
								OFFSET -10.37987 -0.01039 -0.55511
								CHANNELS 3 Zrotation Yrotation Xrotation
								JOINT RightHand
								{
									OFFSET -8.67398 0.07538 0.40058
									CHANNELS 3 Zrotation Yrotation Xrotation
									End Site
									{
										OFFSET -5.24810 -0.21916 0.59204
									}
								}
							}
						}
					}
				}
			}
		}
	}
	JOINT LeftUpLegDummy
	{
		OFFSET 0 0 0
		CHANNELS 3 Zrotation Yrotation Xrotation
		JOINT LeftUpLeg
		{
			OFFSET 3.52197 -3.41223 0.04002
			CHANNELS 3 Zrotation Yrotation Xrotation
			JOINT LeftLeg
			{
				OFFSET -0.00012 -17.42399 1.60337
				CHANNELS 3 Zrotation Yrotation Xrotation
				JOINT LeftFoot
				{
					OFFSET -0.09972 -16.50070 -1.63802
					CHANNELS 3 Zrotation Yrotation Xrotation
					JOINT LeftToes
					{
						OFFSET -0.01575 -1.73823 3.34611
						CHANNELS 3 Zrotation Yrotation Xrotation
						End Site
						{
							OFFSET 0.03150 -0.01868 3.85031
						}
					}
				}
			}
		}
	}
}
MOTION
Frames: 17
Frame Time: 0.033333
-41.9879 39.9203 66.9341 -178.7850 -0.4824 177.6050 0.0000 0.0000 0.0000 1.7663 -1.5399 3.0323 -1.5132 -5.2843 2.9735 -1.5939 0.0885 -3.6086 0.0000 -0.0000 0.0000 0.0000 0.0000 0.0000 -0.5093 -0.3701 0.5068 3.6235 -1.1610 3.5735 -0.0000 0.0000 -0.0000 -2.2404 1.6688 -7.2807 -0.0000 0.0000 -0.0000 -34.7043 -3.1200 2.6985 -44.0089 -17.2671 -16.3240 -10.8057 5.0390 50.9458 16.9635 -3.1378 -1.2248 -0.0000 0.0000 -0.0000 33.9171 5.0789 3.4267 40.3526 9.1133 -13.9430 11.6802 -2.2221 25.7252 -11.7623 1.7068 -0.7050 0.0000 0.0000 0.0000 1.4268 1.7382 1.9531 1.0013 3.2350 5.5586 3.8501 -0.1726 -5.2649 0.0000 0.0000 -0.0000
-41.9949 39.9203 66.9341 -178.8080 -0.4824 177.5870 0.0000 0.0000 0.0000 1.7127 -1.5852 3.0462 -1.4834 -5.2321 2.9951 -1.5798 0.0877 -3.6253 0.0000 -0.0000 0.0000 0.0000 0.0000 0.0000 -0.3562 -0.3820 0.6584 3.3347 -1.1115 3.3720 -0.0000 0.0000 -0.0000 -1.1259 1.9527 -8.0136 -0.0000 0.0000 -0.0000 -34.5061 -3.1264 2.6877 -44.1033 -17.1806 -16.3297 -10.8001 5.0377 50.9912 17.1895 -3.0340 -1.2270 -0.0000 0.0000 -0.0000 34.1011 5.1014 3.4517 40.2920 8.9430 -13.9774 11.6627 -2.1371 25.6468 -11.8718 1.1738 -0.6611 0.0000 0.0000 0.0000 1.3898 1.7241 2.0027 1.0001 3.2559 5.5079 3.8540 -0.1728 -5.2353 0.0000 0.0000 -0.0000
-42.0070 39.9203 66.9341 -178.8080 -0.4785 177.5610 0.0000 0.0000 0.0000 1.6779 -1.6183 3.0874 -1.4570 -5.1904 2.9801 -1.5347 0.0848 -3.6275 0.0000 -0.0000 0.0000 0.0000 0.0000 0.0000 -0.1185 -0.3988 0.8150 2.9511 -1.0515 3.1877 -0.0000 0.0000 -0.0000 0.8379 1.4751 -9.7671 -0.0000 0.0000 -0.0000 -34.2307 -3.1341 2.6723 -44.2419 -17.1065 -16.3883 -10.7535 5.0330 51.1606 17.4979 -3.0545 -1.2528 -0.0000 0.0000 -0.0000 34.2752 5.1200 3.4743 40.2980 8.8155 -14.0018 11.6418 -2.0743 25.7915 -12.2528 0.9100 -0.6572 0.0000 0.0000 0.0000 1.3749 1.7262 2.0462 0.9993 3.2688 5.4894 3.8652 -0.1736 -5.2195 0.0000 0.0000 -0.0000
-42.0180 39.9203 66.9377 -178.7820 -0.4239 177.5550 0.0000 0.0000 0.0000 1.6927 -1.5996 3.0913 -1.4632 -5.1508 2.9643 -1.4935 0.0821 -3.6108 0.0000 -0.0000 0.0000 0.0000 0.0000 0.0000 0.0277 -0.3755 0.8505 2.7564 -0.9916 3.1694 -0.0000 0.0000 -0.0000 0.7254 1.3863 -9.5703 -0.0000 0.0000 -0.0000 -34.0824 -3.1490 2.6681 -44.3207 -17.1116 -16.5440 -10.6476 5.0295 51.3185 17.5930 -3.1096 -1.2678 -0.0000 0.0000 -0.0000 34.3568 5.1268 3.4842 40.3312 8.8436 -13.9389 11.6688 -2.0322 25.9069 -12.4480 1.1008 -0.6866 0.0000 0.0000 0.0000 1.3941 1.7494 2.0321 0.9968 3.3097 5.5333 3.8701 -0.1739 -5.2385 0.0000 0.0000 -0.0000
-42.0261 39.9203 66.9461 -178.7690 -0.3129 177.5690 0.0000 0.0000 0.0000 1.6989 -1.5784 3.0351 -1.4685 -5.0579 2.9996 -1.4907 0.0818 -3.5985 0.0000 -0.0000 0.0000 0.0000 0.0000 0.0000 0.0304 -0.3086 0.8427 2.7610 -0.9237 3.1898 -0.0000 0.0000 -0.0000 0.7163 1.4276 -9.4344 -0.0000 0.0000 -0.0000 -34.0681 -3.1678 2.6736 -44.3344 -17.1171 -16.7418 -10.5314 5.0321 51.2796 17.4484 -3.0010 -1.2414 -0.0000 0.0000 -0.0000 34.4537 5.1397 3.4979 40.2857 8.8812 -13.7491 11.7755 -1.8815 25.4668 -12.1899 1.1671 -0.6788 0.0000 0.0000 0.0000 1.4030 1.7698 1.9999 0.9915 3.3970 5.5660 3.8705 -0.1739 -5.2540 0.0000 0.0000 -0.0000
-42.0323 39.9203 66.9523 -178.7750 -0.2140 177.5710 0.0000 0.0000 0.0000 1.6748 -1.5926 2.9929 -1.4452 -4.9459 3.0445 -1.5132 0.0833 -3.5977 0.0000 -0.0000 0.0000 0.0000 0.0000 0.0000 -0.0318 -0.2492 0.8916 2.8250 -0.8715 3.1367 -0.0000 0.0000 -0.0000 0.7512 1.4105 -9.3624 -0.0000 0.0000 -0.0000 -34.0616 -3.1797 2.6792 -44.3456 -17.0544 -16.8835 -10.4589 5.0368 51.1578 17.2596 -2.8607 -1.2075 -0.0000 0.0000 -0.0000 34.6037 5.1619 3.5201 40.1983 8.8253 -13.5451 11.8887 -1.6363 24.7201 -11.8325 0.9192 -0.6349 0.0000 0.0000 0.0000 1.3941 1.7795 2.0056 0.9867 3.4741 5.5536 3.8801 -0.1745 -5.2463 0.0000 0.0000 -0.0000
-42.0372 39.9203 66.9544 -178.7640 -0.1678 177.5480 0.0000 0.0000 0.0000 1.6698 -1.6063 3.0138 -1.4235 -4.8924 3.0400 -1.5257 0.0841 -3.5943 0.0000 -0.0000 0.0000 0.0000 0.0000 0.0000 -0.0564 -0.2361 0.9770 2.8322 -0.8563 3.0589 -0.0000 0.0000 -0.0000 0.8327 1.3953 -9.2947 -0.0000 0.0000 -0.0000 -33.9729 -3.1858 2.6756 -44.3902 -16.9603 -16.9811 -10.3981 5.0336 51.2824 17.1449 -2.9674 -1.2143 -0.0000 0.0000 -0.0000 34.7365 5.1787 3.5386 40.1858 8.7492 -13.5147 11.8881 -1.4728 24.5504 -11.7372 0.7950 -0.6180 0.0000 0.0000 0.0000 1.4012 1.7900 2.0347 0.9880 3.5044 5.5516 3.8856 -0.1749 -5.2483 0.0000 0.0000 -0.0000
-42.0412 39.9203 66.9571 -178.7330 -0.1389 177.5300 0.0000 0.0000 0.0000 1.7044 -1.5847 3.0428 -1.4313 -4.8896 3.0087 -1.5173 0.0835 -3.5784 0.0000 -0.0000 0.0000 0.0000 0.0000 0.0000 -0.0239 -0.2579 1.0316 2.7604 -0.8638 3.0145 -0.0000 0.0000 -0.0000 0.8932 1.5646 -9.1457 -0.0000 0.0000 -0.0000 -33.8318 -3.1921 2.6686 -44.4441 -16.8874 -17.1409 -10.2783 5.0218 51.7111 17.0382 -3.2933 -1.2522 -0.0000 0.0000 -0.0000 34.8159 5.1833 3.5475 40.2706 8.7303 -13.6710 11.7731 -1.4704 25.1734 -11.7514 1.0813 -0.6456 0.0000 0.0000 0.0000 1.4299 1.8046 2.0360 0.9971 3.5239 5.5916 3.8634 -0.1734 -5.2788 0.0000 0.0000 -0.0000
-42.0454 39.9203 66.9631 -178.7100 -0.0996 177.5390 0.0000 0.0000 0.0000 1.7287 -1.5617 3.0221 -1.4392 -4.8693 3.0013 -1.4995 0.0823 -3.5554 0.0000 -0.0000 0.0000 0.0000 0.0000 0.0000 0.0088 -0.2902 1.0621 2.6600 -0.8758 2.9607 -0.0000 0.0000 -0.0000 0.9010 1.9216 -8.8930 -0.0000 0.0000 -0.0000 -33.7208 -3.1902 2.6603 -44.4701 -16.8231 -17.3751 -10.1184 5.0116 52.0990 16.8777 -3.5341 -1.2735 -0.0000 0.0000 -0.0000 34.8787 5.1850 3.5537 40.3699 8.7268 -13.8127 11.6803 -1.5200 25.7836 -11.6464 1.5127 -0.6799 0.0000 0.0000 0.0000 1.4487 1.8152 2.0086 1.0030 3.5579 5.6189 3.8354 -0.1716 -5.3004 0.0000 0.0000 -0.0000
-42.0496 39.9203 66.9692 -178.7080 -0.0723 177.5610 0.0000 0.0000 0.0000 1.7152 -1.5704 2.9784 -1.4206 -4.8265 3.0129 -1.4803 0.0810 -3.5387 0.0000 -0.0000 0.0000 0.0000 0.0000 0.0000 -0.0004 -0.3260 1.1030 2.5945 -0.8965 2.8793 -0.0000 0.0000 -0.0000 0.8769 2.2087 -8.6767 -0.0000 0.0000 -0.0000 -33.6754 -3.1676 2.6483 -44.4615 -16.7530 -17.5604 -10.0126 5.0108 52.1656 16.7218 -3.5203 -1.2593 -0.0000 0.0000 -0.0000 34.9453 5.1915 3.5622 40.4196 8.6995 -13.7958 11.6985 -1.5376 25.7924 -11.5397 1.7832 -0.6984 0.0000 0.0000 0.0000 1.4444 1.8146 1.9884 1.0007 3.5850 5.5977 3.8421 -0.1721 -5.2858 0.0000 0.0000 -0.0000
-42.0525 39.9203 66.9738 -178.7040 -0.0632 177.5760 0.0000 0.0000 0.0000 1.7070 -1.5775 2.9503 -1.4062 -4.8095 3.0184 -1.4689 0.0802 -3.5346 0.0000 -0.0000 0.0000 0.0000 0.0000 0.0000 -0.0163 -0.3611 1.1268 2.5611 -0.9243 2.8550 -0.0000 0.0000 -0.0000 0.8462 2.2621 -8.6123 -0.0000 0.0000 -0.0000 -33.6535 -3.1331 2.6332 -44.4477 -16.7192 -17.6181 -9.9907 5.0152 52.0334 16.6451 -3.3709 -1.2329 -0.0000 0.0000 -0.0000 34.9972 5.2011 3.5708 40.4267 8.7007 -13.7100 11.7569 -1.5790 25.5844 -11.5937 1.8822 -0.7109 0.0000 0.0000 0.0000 1.4342 1.7982 1.9750 1.0177 3.6094 5.5789 3.8660 -0.1736 -5.2678 0.0000 0.0000 -0.0000
-42.0543 39.9203 66.9799 -178.6850 -0.0443 177.5890 0.0000 0.0000 0.0000 1.7340 -1.5525 2.9246 -1.4193 -4.8203 3.0197 -1.4847 0.0812 -3.5310 0.0000 -0.0000 0.0000 0.0000 0.0000 0.0000 0.0254 -0.3881 1.0944 2.4884 -0.9407 2.9390 -0.0000 0.0000 -0.0000 0.8128 2.1832 -8.6692 -0.0000 0.0000 -0.0000 -33.5905 -3.1046 2.6177 -44.4705 -16.7544 -17.5971 -9.9951 5.0170 51.9750 16.6491 -3.2949 -1.2228 -0.0000 0.0000 -0.0000 35.0283 5.2109 3.5775 40.4244 8.7719 -13.7019 11.7584 -1.6942 25.6487 -11.6716 1.8260 -0.7105 0.0000 0.0000 0.0000 1.4299 1.7677 1.9417 1.0696 3.6605 5.6044 3.8567 -0.1730 -5.2765 0.0000 0.0000 -0.0000
-42.0568 39.9203 66.9886 -178.6610 -0.0173 177.6060 0.0000 0.0000 0.0000 1.7622 -1.5294 2.8911 -1.4246 -4.8195 3.0171 -1.5297 0.0841 -3.5086 0.0000 -0.0000 0.0000 0.0000 0.0000 0.0000 0.1256 -0.4124 1.0383 2.3456 -0.9427 3.0546 -0.0000 0.0000 -0.0000 0.7798 2.0984 -8.6850 -0.0000 0.0000 -0.0000 -33.4767 -3.0788 2.5999 -44.5466 -16.8227 -17.5426 -10.0002 5.0157 52.0123 16.7372 -3.3582 -1.2382 -0.0000 0.0000 -0.0000 35.0479 5.2204 3.5832 40.4334 8.8680 -13.7511 11.7323 -1.8223 25.7169 -11.5855 1.5502 -0.6797 0.0000 0.0000 0.0000 1.4315 1.7432 1.8975 1.1167 3.7116 5.6344 3.8209 -0.1707 -5.2858 0.0000 0.0000 -0.0000
-42.0599 39.9203 66.9970 -178.6450 -0.0086 177.6170 0.0000 0.0000 0.0000 1.7641 -1.5378 2.8709 -1.3989 -4.8028 3.0014 -1.5675 0.0864 -3.4732 0.0000 -0.0000 0.0000 0.0000 0.0000 0.0000 0.2192 -0.4384 1.0122 2.2019 -0.9414 3.1182 -0.0000 0.0000 -0.0000 0.7501 1.9956 -8.6295 -0.0000 0.0000 -0.0000 -33.3746 -3.0413 2.5784 -44.6431 -16.8737 -17.4290 -10.0480 5.0170 51.9534 16.9376 -3.4348 -1.2643 -0.0000 0.0000 -0.0000 35.0492 5.2282 3.5858 40.4490 8.9346 -13.7433 11.7639 -1.8939 25.3541 -11.3967 1.1831 -0.6350 0.0000 0.0000 0.0000 1.4443 1.7486 1.8739 1.1141 3.7107 5.6291 3.8080 -0.1703 -5.2701 0.0000 0.0000 -0.0000
-42.0618 39.9203 67.0022 -178.6330 -0.0070 177.6190 0.0000 0.0000 0.0000 1.7648 -1.5452 2.8667 -1.3792 -4.7942 2.9855 -1.5616 0.0860 -3.4531 0.0000 -0.0000 0.0000 0.0000 0.0000 0.0000 0.2593 -0.4498 1.0060 2.1391 -0.9388 3.1497 -0.0000 0.0000 -0.0000 0.7221 1.8882 -8.5687 -0.0000 0.0000 -0.0000 -33.3474 -3.0001 2.5604 -44.7093 -16.9075 -17.2690 -10.1420 5.0224 51.7452 17.1666 -3.3766 -1.2738 -0.0000 0.0000 -0.0000 35.0182 5.2325 3.5855 40.4477 8.9624 -13.6697 11.8403 -1.9179 24.8284 -11.2814 1.0137 -0.6132 0.0000 0.0000 0.0000 1.4706 1.7792 1.8680 1.0785 3.6792 5.6177 3.8235 -0.1718 -5.2549 0.0000 0.0000 -0.0000
-42.0630 39.9203 67.0058 -178.6200 0.0075 177.6180 0.0000 0.0000 0.0000 1.7835 -1.5283 2.8628 -1.3876 -4.7965 2.9806 -1.5270 0.0837 -3.4527 0.0000 -0.0000 0.0000 0.0000 0.0000 0.0000 0.2591 -0.4383 0.9887 2.1557 -0.9375 3.1959 -0.0000 0.0000 -0.0000 0.6882 1.8569 -8.5385 -0.0000 0.0000 -0.0000 -33.3861 -2.9772 2.5535 -44.7337 -16.9483 -17.1457 -10.2164 5.0271 51.5660 17.2203 -3.1981 -1.2526 -0.0000 0.0000 -0.0000 34.9548 5.2310 3.5792 40.4229 8.9413 -13.6184 11.8714 -1.9106 24.7359 -11.3330 1.0766 -0.6218 0.0000 0.0000 0.0000 1.4971 1.8053 1.8586 1.0566 3.6678 5.6300 3.8317 -0.1729 -5.2619 0.0000 0.0000 -0.0000
-42.0637 39.9203 67.0109 -178.6060 0.0026 177.6120 0.0000 0.0000 0.0000 1.7972 -1.5211 2.8694 -1.3880 -4.8059 2.9660 -1.5088 0.0825 -3.4439 0.0000 -0.0000 0.0000 0.0000 0.0000 0.0000 0.2523 -0.4333 0.9841 2.1880 -0.9399 3.2362 -0.0000 0.0000 -0.0000 0.6457 1.8964 -8.5134 -0.0000 0.0000 -0.0000 -33.4249 -2.9734 2.5520 -44.7469 -16.9923 -17.0833 -10.2428 5.0278 51.5317 17.0353 -2.9974 -1.2105 -0.0000 0.0000 -0.0000 34.8724 5.2212 3.5679 40.4046 8.8617 -13.6227 11.8323 -1.8516 25.1053 -11.5867 1.1204 -0.6400 0.0000 0.0000 0.0000 1.5083 1.8067 1.8503 1.0612 3.6585 5.6416 3.8215 -0.1729 -5.2689 0.0000 0.0000 -0.0000
